<svg width="16" height="15" viewBox="0 0 16 15" fill="none" xmlns="http://www.w3.org/2000/svg">
<path d="M4.4 15C3.16329 14.9949 2.07461 14.1943 1.716 13.0264H0V11.4475H1.716C2.12792 10.0841 3.52163 9.25217 4.93656 9.52517C6.35149 9.79817 7.32506 11.0868 7.18628 12.5029C7.04749 13.919 5.84172 14.9996 4.4 15ZM4.4 11.0527C3.73726 11.0527 3.2 11.5829 3.2 12.2369C3.2 12.8909 3.73726 13.4211 4.4 13.4211C5.06274 13.4211 5.6 12.8909 5.6 12.2369C5.6 11.5829 5.06274 11.0527 4.4 11.0527ZM16 13.0264H8V11.4475H16V13.0264ZM11.6 10.2633C10.1583 10.2629 8.95251 9.18228 8.81372 7.76618C8.67494 6.35007 9.64851 5.06145 11.0634 4.78845C12.4784 4.51545 13.8721 5.34733 14.284 6.71074H16V8.28964H14.284C13.9254 9.45763 12.8367 10.2582 11.6 10.2633ZM11.6 6.31601C10.9373 6.31601 10.4 6.84619 10.4 7.50019C10.4 8.15419 10.9373 8.68437 11.6 8.68437C12.2627 8.68437 12.8 8.15419 12.8 7.50019C12.8 6.84619 12.2627 6.31601 11.6 6.31601ZM8 8.28964H0V6.71074H8V8.28964ZM6 5.52656C4.55828 5.52619 3.35251 4.44556 3.21372 3.02945C3.07494 1.61335 4.04851 0.324724 5.46344 0.0517266C6.87837 -0.221271 8.27208 0.610608 8.684 1.97402H16V3.55292H8.684C8.32517 4.72075 7.23662 5.5212 6 5.52656ZM6 1.57929C5.34558 1.58016 4.81254 2.0983 4.80179 2.744C4.79103 3.38971 5.30652 3.92485 5.96055 3.94695C6.61459 3.96906 7.16597 3.46996 7.2 2.82505V3.05399V2.76347C7.2 2.10946 6.66274 1.57929 6 1.57929ZM2.4 3.55292H0V1.97402H2.4V3.55292Z" fill="#303030"/>
</svg>
