<svg width="16" height="16" viewBox="0 0 16 16" fill="none" xmlns="http://www.w3.org/2000/svg">
<path d="M7.9996 2.17863e-07C4.07639 -0.000516665 0.732035 2.91782 0.103901 6.88991C-0.524233 10.862 1.74933 14.715 5.47156 15.9864C5.87245 16.0604 6.01597 15.808 6.01597 15.5908C6.01597 15.3959 6.00956 14.8795 6.00715 14.1928C3.78219 14.6862 3.31234 13.0924 3.31234 13.0924C3.16587 12.5965 2.85097 12.1708 2.42476 11.8926C1.70315 11.3835 2.48008 11.395 2.48008 11.395C2.99377 11.4673 3.44588 11.7794 3.70441 12.2404C3.92325 12.6485 4.29193 12.9501 4.72854 13.0781C5.16515 13.2061 5.63353 13.15 6.0296 12.9222C6.06682 12.5061 6.24732 12.1171 6.53874 11.8251C4.76358 11.6187 2.89701 10.9147 2.89701 7.77075C2.88716 6.95757 3.18157 6.17145 3.71965 5.57415C3.47619 4.86633 3.50486 4.08995 3.79983 3.40304C3.79983 3.40304 4.47092 3.18182 5.99833 4.2427C7.30833 3.87428 8.69086 3.87428 10.0009 4.2427C11.5291 3.181 12.1994 3.40304 12.1994 3.40304C12.4957 4.08962 12.5244 4.86655 12.2795 5.57415C12.8196 6.17139 13.1138 6.95958 13.1006 7.77404C13.1006 10.9263 11.2324 11.6187 9.45084 11.8218C9.83515 12.2249 10.0322 12.7777 9.99204 13.34C9.99204 14.437 9.98242 15.3219 9.98242 15.5908C9.98242 15.8104 10.1251 16.0654 10.5332 15.9848C14.2539 14.7112 16.5251 10.858 15.8956 6.88694C15.2662 2.9159 11.922 -0.000920395 7.9996 2.17863e-07Z" fill="#303030"/>
</svg>
