<svg width="12" height="16" viewBox="0 0 12 16" fill="none" xmlns="http://www.w3.org/2000/svg">
<path d="M5.99997 16C4.91735 15.0425 3.91385 13.9929 2.99999 12.862C1.62856 11.1637 7.57421e-07 8.63441 7.57421e-07 6.22424C-0.0012148 3.70702 1.46078 1.43713 3.70375 0.473778C5.94673 -0.489573 8.52858 0.0435046 10.2445 1.82426C11.3729 2.989 12.005 4.57337 12 6.22424C12 8.63441 10.3714 11.1637 8.99995 12.862C8.08609 13.9929 7.08259 15.0425 5.99997 16ZM5.99997 1.78071C3.63422 1.78365 1.71711 3.77136 1.71428 6.22424C1.71428 7.26047 2.16599 9.05477 4.31569 11.7218C4.84552 12.3777 5.4077 13.0048 5.99997 13.6005C6.59229 13.0055 7.15474 12.3793 7.6851 11.7244C9.83395 9.05388 10.2857 7.25958 10.2857 6.22424C10.2828 3.77136 8.36572 1.78365 5.99997 1.78071ZM5.99997 8.89036C4.57982 8.89036 3.42856 7.69669 3.42856 6.22424C3.42856 4.75178 4.57982 3.55812 5.99997 3.55812C7.42012 3.55812 8.57139 4.75178 8.57139 6.22424C8.57139 6.93134 8.30047 7.60947 7.81824 8.10947C7.336 8.60946 6.68195 8.89036 5.99997 8.89036Z" fill="#848484"/>
</svg>
