<svg width="16" height="16" viewBox="0 0 16 16" fill="none" xmlns="http://www.w3.org/2000/svg">
<path d="M12.9643 12.1561C14.3382 11.1891 15.4066 9.82107 15.9695 8.186C16.0108 8.06581 16.0108 7.93457 15.9695 7.81438C14.8312 4.50729 11.6289 2.28574 8.00024 2.28574C6.58384 2.28574 5.23468 2.62803 4.04571 3.23737L0.975583 0.167431C0.752342 -0.0558102 0.390814 -0.0558102 0.167573 0.167431C-0.0556673 0.390671 -0.0556673 0.7522 0.167573 0.97544L3.03618 3.84405C1.66226 4.8111 0.593864 6.17912 0.0310004 7.81419C-0.0103335 7.93438 -0.0103335 8.06562 0.0310004 8.18581C1.67788 12.9708 7.39471 15.0996 11.9548 12.7626L15.0247 15.8326C15.2479 16.0558 15.6095 16.0558 15.8327 15.8326C16.056 15.6093 16.056 15.2478 15.8327 15.0246L12.9643 12.1561ZM8.00024 3.42861C11.0723 3.42861 13.7877 5.2574 14.8215 8.0001C14.2999 9.38354 13.3498 10.5335 12.1428 11.3344L10.7919 9.98355C11.1913 9.42297 11.4289 8.73934 11.4289 8.0001C11.4289 6.10941 9.89093 4.57148 8.00024 4.57148C7.26099 4.57148 6.57736 4.80901 6.01679 5.20863L4.90134 4.09319C5.84859 3.66633 6.90061 3.42861 8.00024 3.42861ZM6.0385 6.84637L9.15397 9.96202C8.81415 10.1628 8.42291 10.2858 8.00024 10.2858C6.73984 10.2858 5.7145 9.26068 5.7145 8.0001C5.7145 7.57742 5.83755 7.18637 6.0385 6.84637ZM6.84651 6.03817C7.18651 5.8374 7.57757 5.71435 8.00024 5.71435C9.26063 5.71435 10.286 6.7397 10.286 8.0001C10.286 8.42277 10.1629 8.81401 9.96217 9.15401L6.84651 6.03817ZM1.17901 8.0001C1.70054 6.61665 2.65065 5.46673 3.85771 4.66577L5.20859 6.01664C4.80915 6.57722 4.57163 7.26085 4.57163 8.0001C4.57163 9.89078 6.10955 11.4287 8.00024 11.4287C8.73949 11.4287 9.42311 11.1912 9.98369 10.7916L11.0991 11.907C7.2488 13.6409 2.63522 11.864 1.17901 8.0001Z" fill="#8E8E93"/>
</svg>
