<svg width="24" height="24" viewBox="0 0 24 24" fill="none" xmlns="http://www.w3.org/2000/svg">
<path d="M12 24C10.1857 24.005 8.3943 23.5945 6.76325 22.7999C6.16632 22.5096 5.59438 22.1704 5.05327 21.7859L4.88887 21.6659C3.40067 20.5675 2.18395 19.1426 1.33211 17.5007C0.450999 15.8014 -0.0059912 13.9141 5.93069e-05 12C5.93069e-05 5.37256 5.37265 0 12 0C18.6274 0 23.9999 5.37256 23.9999 12C24.0059 13.9132 23.5494 15.7996 22.6691 17.4983C21.8184 19.1392 20.6034 20.5636 19.1171 21.6623C18.5564 22.0727 17.9615 22.434 17.3387 22.7423L17.2428 22.7903C15.6107 23.5892 13.8171 24.003 12 24ZM12 17.9999C10.2018 17.9964 8.55323 19.0008 7.73164 20.6003C10.4213 21.9325 13.5787 21.9325 16.2684 20.6003V20.5943C15.4458 18.9965 13.7971 17.9944 12 17.9999ZM12 15.5999C14.5993 15.6033 16.996 17.0041 18.2747 19.2671L18.2927 19.2515L18.3095 19.2371L18.2891 19.2551L18.2771 19.2647C21.3119 16.6429 22.397 12.4108 20.9983 8.65209C19.5995 4.89343 16.0117 2.40037 12.0012 2.40037C7.99073 2.40037 4.40287 4.89343 3.00411 8.65209C1.60535 12.4108 2.6905 16.6429 5.72526 19.2647C7.00476 17.0028 9.40126 15.6031 12 15.5999ZM12 14.3999C9.34906 14.3999 7.20005 12.2509 7.20005 9.59996C7.20005 6.94901 9.34906 4.79998 12 4.79998C14.6509 4.79998 16.8 6.94901 16.8 9.59996C16.8 10.873 16.2942 12.0939 15.3941 12.9941C14.4939 13.8942 13.273 14.3999 12 14.3999ZM12 7.19997C10.6745 7.19997 9.60003 8.27448 9.60003 9.59996C9.60003 10.9254 10.6745 12 12 12C13.3255 12 14.4 10.9254 14.4 9.59996C14.4 8.27448 13.3255 7.19997 12 7.19997Z" fill="#FDFDFD"/>
</svg>
