<svg width="18" height="18" viewBox="0 0 18 18" fill="none" xmlns="http://www.w3.org/2000/svg">
<path d="M16.4663 18L10.2718 11.8048C7.51612 13.7638 3.71895 13.2846 1.53644 10.7024C-0.646075 8.12028 -0.485819 4.29658 1.9051 1.90607C4.29539 -0.485477 8.1197 -0.646416 10.7025 1.53585C13.2853 3.71811 13.7648 7.51542 11.8055 10.2711L18 16.4664L16.4674 17.9989L16.4663 18ZM6.50302 2.16835C4.44762 2.16788 2.67434 3.6106 2.2568 5.62303C1.83926 7.63546 2.89223 9.66449 4.77818 10.4817C6.66414 11.2988 8.86474 10.6796 10.0477 8.99877C11.2306 7.31798 11.0707 5.03763 9.66477 3.53833L10.3205 4.18864L9.58131 3.45163L9.56831 3.43862C8.75732 2.62268 7.65347 2.16525 6.50302 2.16835Z" fill="#C2C2C2"/>
</svg>
