<svg width="48" height="53" viewBox="0 0 48 53" fill="none" xmlns="http://www.w3.org/2000/svg">
<path d="M10.6667 5.8H11.1667V5.3V0.5H15.5V5.3V5.8H16H32H32.5V5.3V0.5H36.8333V5.3V5.8H37.3333H42.6667C45.339 5.8 47.5 7.95198 47.5 10.6V47.7C47.5 50.348 45.339 52.5 42.6667 52.5H5.33333C2.661 52.5 0.5 50.348 0.5 47.7V10.6C0.5 7.95198 2.661 5.8 5.33333 5.8H10.6667ZM5.33333 20.7H4.83333V21.2V47.7V48.2H5.33333H42.6667H43.1667V47.7V21.2V20.7H42.6667H5.33333ZM5.33333 10.1H4.83333V10.6V15.9V16.4H5.33333H42.6667H43.1667V15.9V10.6V10.1H42.6667H5.33333ZM35.8426 28.3735L21.332 42.7909L12.1573 33.6735L15.2187 30.6314L20.9809 36.3576L21.3333 36.7078L21.6858 36.3576L32.7813 25.3314L35.8426 28.3735Z" fill="#66D26A" stroke="#66D26A"/>
</svg>
