<svg width="23" height="16" viewBox="0 0 23 16" fill="none" xmlns="http://www.w3.org/2000/svg">
<path d="M11.5142 16H11.4913C11.42 16 4.29246 15.9863 2.49419 15.501C1.50534 15.2363 0.733097 14.4684 0.467265 13.4856C0.143897 11.6727 -0.012256 9.83425 0.000750116 7.99315C-0.00760448 6.14903 0.152774 4.30798 0.479904 2.49272C0.753042 1.50901 1.5219 0.737596 2.50913 0.456751C4.25798 0 11.1891 0 11.4832 0H11.5073C11.5797 0 18.7257 0.0137025 20.5056 0.499001C21.4923 0.765069 22.263 1.53137 22.5302 2.51213C22.8639 4.33176 23.0205 6.17909 22.9979 8.02855C23.0059 9.87043 22.8451 11.7092 22.5176 13.5221C22.2483 14.5037 21.4756 15.2699 20.4872 15.5353C18.7406 15.9954 11.8084 16 11.5142 16ZM9.21614 4.57322L9.2104 11.4245L15.1993 7.99886L9.21614 4.57322Z" fill="#303030"/>
</svg>
